<svg width="20" height="20" viewBox="0 0 20 20" fill="none" xmlns="http://www.w3.org/2000/svg">
<path d="M6 20C5.45 20 4.97917 19.8042 4.5875 19.4125C4.19583 19.0208 4 18.55 4 18C4 17.45 4.19583 16.9792 4.5875 16.5875C4.97917 16.1958 5.45 16 6 16C6.55 16 7.02083 16.1958 7.4125 16.5875C7.80417 16.9792 8 17.45 8 18C8 18.55 7.80417 19.0208 7.4125 19.4125C7.02083 19.8042 6.55 20 6 20ZM16 20C15.45 20 14.9792 19.8042 14.5875 19.4125C14.1958 19.0208 14 18.55 14 18C14 17.45 14.1958 16.9792 14.5875 16.5875C14.9792 16.1958 15.45 16 16 16C16.55 16 17.0208 16.1958 17.4125 16.5875C17.8042 16.9792 18 17.45 18 18C18 18.55 17.8042 19.0208 17.4125 19.4125C17.0208 19.8042 16.55 20 16 20ZM2 2H1C0.716667 2 0.479167 1.90417 0.2875 1.7125C0.0958333 1.52083 0 1.28333 0 1C0 0.716667 0.0958333 0.479167 0.2875 0.2875C0.479167 0.0958333 0.716667 0 1 0H2.65C2.83333 0 3.00833 0.05 3.175 0.15C3.34167 0.25 3.46667 0.391667 3.55 0.575L7.525 9H14.525L18.15 2.5C18.2333 2.33333 18.35 2.20833 18.5 2.125C18.65 2.04167 18.8167 2 19 2C19.3833 2 19.6708 2.1625 19.8625 2.4875C20.0542 2.8125 20.0583 3.14167 19.875 3.475L16.3 9.95C16.1167 10.2833 15.8708 10.5417 15.5625 10.725C15.2542 10.9083 14.9167 11 14.55 11H7.1L6 13H17C17.2833 13 17.5208 13.0958 17.7125 13.2875C17.9042 13.4792 18 13.7167 18 14C18 14.2833 17.9042 14.5208 17.7125 14.7125C17.5208 14.9042 17.2833 15 17 15H6C5.25 15 4.67917 14.675 4.2875 14.025C3.89583 13.375 3.88333 12.7167 4.25 12.05L5.6 9.6L2 2ZM11.175 5H8C7.71667 5 7.47917 4.90417 7.2875 4.7125C7.09583 4.52083 7 4.28333 7 4C7 3.71667 7.09583 3.47917 7.2875 3.2875C7.47917 3.09583 7.71667 3 8 3H11.175L10.275 2.1C10.075 1.9 9.97917 1.66667 9.9875 1.4C9.99583 1.13333 10.1 0.9 10.3 0.7C10.5 0.516667 10.7333 0.420833 11 0.4125C11.2667 0.404167 11.5 0.5 11.7 0.7L14.3 3.3C14.5 3.5 14.6 3.73333 14.6 4C14.6 4.26667 14.5 4.5 14.3 4.7L11.7 7.3C11.5167 7.48333 11.2875 7.57917 11.0125 7.5875C10.7375 7.59583 10.5 7.5 10.3 7.3C10.1167 7.11667 10.025 6.88333 10.025 6.6C10.025 6.31667 10.1167 6.08333 10.3 5.9L11.175 5Z" fill="white"/>
</svg>
