<svg width="22" height="22" viewBox="0 0 22 22" fill="none" xmlns="http://www.w3.org/2000/svg">
<path d="M8.75456 13.8875L16.5233 6.11875C16.7066 5.93542 16.9205 5.84375 17.165 5.84375C17.4094 5.84375 17.6233 5.93542 17.8066 6.11875C17.99 6.30208 18.0816 6.51979 18.0816 6.77188C18.0816 7.02396 17.99 7.24167 17.8066 7.425L9.39623 15.8583C9.21289 16.0417 8.999 16.1333 8.75456 16.1333C8.51012 16.1333 8.29623 16.0417 8.11289 15.8583L4.17123 11.9167C3.98789 11.7333 3.90005 11.5156 3.90768 11.2635C3.91532 11.0115 4.01081 10.7938 4.19414 10.6104C4.37748 10.4271 4.59518 10.3354 4.84727 10.3354C5.09935 10.3354 5.31706 10.4271 5.50039 10.6104L8.75456 13.8875Z" fill="white"/>
</svg>
