<svg width="16" height="18" viewBox="0 0 16 18" fill="none" xmlns="http://www.w3.org/2000/svg">
<path d="M1.684 16.57H4.236C2.93067 15.9393 1.95533 15.074 1.31 13.974C0.664667 12.874 0.342 11.6127 0.342 10.19C0.342 8.41533 0.804 6.87533 1.728 5.57C2.66667 4.26467 3.93533 3.392 5.534 2.952V0.598H6.788V2.688C7.12533 2.62933 7.52133 2.6 7.976 2.6C8.43067 2.6 8.834 2.62933 9.186 2.688V0.598H10.462V2.952C12.046 3.42133 13.3 4.316 14.224 5.636C15.1627 6.94133 15.632 8.48867 15.632 10.278H13.96C13.96 8.88467 13.652 7.67467 13.036 6.648C12.4347 5.60667 11.5767 4.888 10.462 4.492V10.278H9.186V4.118C8.746 4.04467 8.34267 4.008 7.976 4.008C7.59467 4.008 7.19867 4.04467 6.788 4.118V10.278H5.534V4.47C4.39 4.866 3.51 5.57733 2.894 6.604C2.278 7.63067 1.97 8.84067 1.97 10.234C1.97 11.466 2.234 12.5587 2.762 13.512C3.29 14.4653 4.038 15.2133 5.006 15.756C5.98867 16.284 7.13267 16.548 8.438 16.548H13.85V18H1.684V16.57Z" fill="#2869CA"/>
</svg>
